<?xml version="1.0" encoding="UTF-8" standalone="no"?>
<!-- Created with Inkscape (http://www.inkscape.org/) -->

<svg
   xmlns:dc="http://purl.org/dc/elements/1.1/"
   xmlns:cc="http://creativecommons.org/ns#"
   xmlns:rdf="http://www.w3.org/1999/02/22-rdf-syntax-ns#"
   xmlns:svg="http://www.w3.org/2000/svg"
   xmlns="http://www.w3.org/2000/svg"
   version="1.1"
   width="397.53113"
   height="354.33072"
   viewBox="0 0 318.02648 283.46363"
   id="svg2">
  <title
     id="title4">roshamglo logo</title>
  <metadata
     id="metadata12">
    <rdf:RDF>
      <cc:Work
         rdf:about="">
        <dc:format>image/svg+xml</dc:format>
        <dc:type
           rdf:resource="http://purl.org/dc/dcmitype/StillImage" />
        <dc:title>roshamglo logo</dc:title>
      </cc:Work>
    </rdf:RDF>
  </metadata>
  <defs
     id="defs10" />
  <path
     d="m 316.02657,214.24989 -29.12515,0 0.32501,1.225 1.9,7.00004 -0.65,7.87504 -0.675,7.90004 -3.97502,7.95004 -6.60003,-6.60004 -6.60004,-6.57503 -6.60003,-6.60003 -6.60003,-6.60003 -5.55003,-5.57503 -40.5252,0 4.10002,4.07502 7.05003,7.00003 7.05004,7.02504 7.05003,7.00003 7.05004,7.02504 7.05003,7.02503 7.05004,7.00004 7.05003,7.02503 7.05004,7.00004 7.05003,7.02503 4.62503,1.82501 4.82502,0.05 2.70001,-0.65 5.45003,-3.35002 5.90003,-7.45004 4.05002,-7.57503 4.07502,-7.57504 4.05002,-7.57504 1.15001,-8.77504 1.15,-8.75005 1.15001,-8.75004 -2.00001,-8.62504"
     id="path3014"
     style="fill:#0f0708" />
  <path
     d="m 31.750158,-0.0011757 -5.500028,1.0500052 -4.800024,3.2000159 -3.175015,4.8000238 -1.075006,5.5000278 1.075006,5.500027 3.275016,4.725023 6.875034,6.875034 6.900034,6.875034 6.875034,6.900035 6.900035,6.875034 6.875034,6.900034 6.900034,6.875034 6.875034,6.875034 6.900034,6.900035 6.875034,6.875034 6.875035,6.900034 6.900034,6.875031 6.875037,6.87504 6.90003,6.90003 6.87504,6.87504 6.90003,6.90003 6.87503,6.87503 6.87504,6.87504 -6.02503,6.05003 -6.05003,6.05003 -6.05003,6.05003 -6.05003,6.05003 -6.02503,-3.25002 -6.05003,-3.22501 -6.025032,-3.25002 -8.750043,-1.15001 -8.750044,-1.15 -8.750043,-1.15001 -8.625043,2.00001 -8.650043,2.00001 -8.625043,1.97501 -7.575037,5.17503 -7.550038,5.15002 -7.575037,5.17503 -5.175026,7.57504 -5.150026,7.55003 -5.1500252,7.57504 -2.00001,8.62504 -2.0000099,8.62505 29.3251451,0 1.450008,-5.87503 4.625023,-6.75004 4.650023,-6.75003 6.750033,-4.65002 6.750034,-4.62502 7.725038,-1.90001 7.725038,-1.87501 7.225036,0.6 7.200036,0.625 7.950039,4.00002 -6.525032,6.52503 -6.550033,6.55004 -6.550032,6.55003 -6.550033,6.55003 -1.025005,1.02501 40.725202,0 3.15002,-3.15002 7.00003,-6.97503 7.00004,-7.00004 6.97503,-6.97503 7.00003,-6.97504 7.00004,-7.00003 7.00003,-6.97504 7.00004,-7.00003 7.05003,7.02503 7.05004,7.00004 7.05003,7.02503 7.05004,7.02504 7.05003,7.00003 7.07504,7.02504 7.05003,7.00003 2.95002,2.95002 40.5252,0 -1.02501,-1.02501 -6.60003,-6.60003 -6.60003,-6.57503 -6.60003,-6.60004 -6.60004,-6.60003 5.77503,-3.10001 8.45004,-0.95001 8.47505,-0.95 7.65003,1.87501 7.67504,1.87501 6.75004,4.65002 6.77503,4.62502 4.65002,6.80004 4.67503,6.80003 1.575,5.77503 29.12515,0 -2.00001,-8.62505 -2.00001,-8.62504 -5.15003,-7.57504 -5.15002,-7.55003 -5.15003,-7.57504 -7.57504,-5.17503 -7.57503,-5.15002 -7.57504,-5.15003 -8.62504,-2.00001 -8.62505,-2.00001 -8.62504,-2.00001 -8.75004,1.17501 -8.75005,1.15 -8.75004,1.15001 -6.05003,3.22502 -6.02503,3.22501 -6.05003,3.25002 -6.05003,-6.05003 -6.02503,-6.05003 -6.05003,-6.05003 -6.05003,-6.05003 6.92503,-6.92504 6.95004,-6.95003 6.92503,-6.95004 6.95004,-6.95003 6.92503,-6.95003 6.95004,-6.95004 6.92503,-6.950033 6.95004,-6.950035 6.95003,-6.950034 6.92503,-6.950035 6.92504,-6.950034 6.95003,-6.950035 6.92504,-6.950034 6.95003,-6.950035 6.92504,-6.950034 6.95003,-6.950035 6.92504,-6.950034 2.42501,-3.625018 1.05,-5.500027 -1.05,-5.5000278 -3.20002,-4.8000238 -4.80002,-3.2000159 -5.50003,-1.0500052 -5.50003,1.0500052 -4.70002,3.3000164 -6.90003,6.8750341 -6.87504,6.900034 -6.90003,6.875034 -6.87504,6.900035 -6.87503,6.875034 -6.90004,6.875034 -6.87503,6.900034 -6.90003,6.875034 -6.87504,6.900034 -6.87503,6.875035 -6.90004,6.900034 -6.87503,6.875034 -6.90003,6.875034 -6.87504,6.90003 -6.87503,6.87504 -6.90004,6.90003 -6.87503,6.87504 -6.95004,-6.92504 -6.95003,-6.95003 -6.95003,-6.92504 -6.95004,-6.950031 -6.95003,-6.925034 -6.95004,-6.950035 -6.95003,-6.925034 -6.95004,-6.950035 -6.950031,-6.925034 -6.950035,-6.950035 -6.950034,-6.925034 -6.950035,-6.950034 -6.950034,-6.925035 -6.950035,-6.950034 -6.950034,-6.925035 -6.950035,-6.950034 -6.950034,-6.9250345 -3.625018,-2.425012 -5.500027,-1.0500052 0,0"
     id="path6"
     style="fill:#0f0708" />
  <path
     d="m 2.2198441,214.09088 29.1251449,0 -0.32501,1.225 -1.9,7.00004 0.65,7.87504 0.675,7.90004 3.97502,7.95004 6.60003,-6.60004 6.60004,-6.57503 6.60003,-6.60003 6.60003,-6.60003 5.55003,-5.57503 40.525211,0 -4.10002,4.07502 -7.050031,7.00003 -7.05004,7.02504 -7.05003,7.00003 -7.05005,7.02504 -7.05003,7.02503 -7.05004,7.00004 -7.05003,7.02503 -7.05004,7.00004 -7.05003,7.02503 -4.62503,1.82501 -4.82502,0.05 -2.70001,-0.65 -5.45003,-3.35002 -5.90003,-7.45004 -4.050019,-7.57504 -4.0750199,-7.57504 -4.05002,-7.57504 -1.150006,-8.77503 -1.15,-8.75006 -1.15000999,-8.75003 2.00000999,-8.62505"
     id="path3014-1"
     style="fill:#0f0708" />
</svg>
