<?xml version="1.0" encoding="UTF-8" standalone="no"?>
<!-- Created with Inkscape (http://www.inkscape.org/) -->

<svg
   xmlns:dc="http://purl.org/dc/elements/1.1/"
   xmlns:cc="http://creativecommons.org/ns#"
   xmlns:rdf="http://www.w3.org/1999/02/22-rdf-syntax-ns#"
   xmlns:svg="http://www.w3.org/2000/svg"
   xmlns="http://www.w3.org/2000/svg"
   version="1.1"
   width="1.0619299cm"
   height="0.92891997cm"
   viewBox="0 0 30.10207 26.33173"
   id="svg2">
  <title
     id="title4">roshamglo logos</title>
  <metadata
     id="metadata32">
    <rdf:RDF>
      <cc:Work
         rdf:about="">
        <dc:format>image/svg+xml</dc:format>
        <dc:type
           rdf:resource="http://purl.org/dc/dcmitype/StillImage" />
        <dc:title>roshamglo logos</dc:title>
      </cc:Work>
    </rdf:RDF>
  </metadata>
  <defs
     id="defs30" />
  <path
     d="m 8.268,19.414 -1.768,0.009 0,3.8 2.055,0 0,-4.087 -0.027,0.108 -0.062,0.089 -0.089,0.059 -0.109,0.022 0,0 0,0"
     id="polygon6"
     style="fill:#0f0708" />
  <path
     d="m 12.369,17.353 -3.181,0.014 -0.002,0 -0.005,0.003 -0.002,0 -0.624,0 0.007,1.748 -10e-4,0.004 -0.005,0.009 -10e-4,0.005 0,4.087 3.814,0 0,-5.87 0,0 0,0"
     id="polygon8"
     style="fill:#0f0708" />
  <path
     d="m 7.965,17.785 -1.044,1.045 1.049,-0.005 -0.005,-1.04 0,0 0,0"
     id="polygon10"
     style="fill:#0f0708" />
  <path
     d="m 18.375078,12.225066 -6.400035,0 0.150001,0.275001 0.100001,0.350002 0.125,0.725004 0.05,0.150001 0.075,0.125 0.150001,0.100001 0.150001,0.05 1.050005,0.250001 0.325002,0.175001 0.600003,0.500003 0.150001,0.075 0.150001,0.025 0.275001,-0.025 2.325013,-0.825004 0.150001,-0.125001 0.1,-0.125 0.05,-0.175001 0.125001,-0.800005 0.100001,-0.375002 0.200001,-0.350001 z"
     id="path3588"
     style="fill:#0f0708" />
  <path
     d="m 16.375067,7.7000413 -1.600009,0.2750015 -1.325007,0.4750025 0.350002,0.5250028 0.025,0.05 0,0.05 -0.025,0.5500029 1.425008,1.300007 0.075,0.1 0.025,0.125001 -0.025,0.1 -0.05,0.100001 -0.05,0.05 -0.05,0.025 -0.05,0 -0.05,0.025 -0.025,0 -0.05,0 -0.05,-0.025 -0.05,-0.025 -0.450002,-0.400002 0,0.475003 -0.025,0.1 -0.05,0.100001 -0.1,0.075 -0.125001,0 -0.100001,0 -0.1,-0.075 -0.05,-0.100001 -0.025,-0.1 0,-1.000006 -0.600003,-0.5500024 -0.05,-0.075 0,-0.05 0.025,-0.6250034 -0.275001,-0.4250023 -0.225002,0.2000011 -0.200001,0.2250012 -0.875004,1.7250088 -0.05,0.200002 -0.025,0.200001 0.025,0.175001 0.05,0.175 0.325001,0.575004 6.400035,0 0.300001,-0.550003 0.075,-0.200001 0.025,-0.175001 -0.025,-0.200001 -0.075,-0.200002 -0.225001,-0.375002 -0.400002,-0.7500036 -0.850005,-0.9250049 -0.450002,-0.9000049 -0.1,-0.1500008 -0.125001,-0.075 -0.075,-0.025 -0.075,0 z"
     id="polygon12"
     style="fill:#0f0708" />
  <path
     d="m 16.816,21.576 -0.232,0.332 -0.103,0.375 0.023,0.388 0.146,0.369 1.63,-1.631 -0.369,-0.145 -0.388,-0.023 -0.375,0.102 -0.332,0.233 0,0 0,0"
     id="polygon14"
     style="fill:#0f0708" />
  <path
     d="m 22.824,21.576 -0.332,-0.232 -0.375,-0.103 -0.388,0.023 -0.369,0.145 1.631,1.631 0.145,-0.369 0.024,-0.388 -0.103,-0.375 -0.233,-0.332 0,0 0,0"
     id="polygon16"
     style="fill:#0f0708" />
  <path
     d="m 21.36,21.409 1.152,1.151 -1.152,-1.151 0,0 0,0 0,0 0,0 0,0 0,0"
     id="polygon18"
     style="fill:#0f0708" />
  <path
     d="m 29.968,24.847 -2.696,-4.6695 -2.696,-4.6695 -1.351,1.351 0.004,0.002 0.009,0.002 0.004,0.003 0.065,0.097 0.022,0.112 -0.022,0.111 -0.065,0.098 -3.004,3.003 0.683,0.683 0.571,-0.272 0.617,-0.059 0.603,0.153 0.53,0.366 0.367,0.53 0.153,0.603 -0.06,0.617 -0.272,0.571 0.495,0.495 -0.495,-0.495 -0.188,0.23 -0.046,0.038 -0.052,0.027 -0.055,0.016 -0.056,0.005 -0.056,-0.005 -0.055,-0.016 -0.051,-0.027 -2.179,-2.17 0,-0.001 -0.001,0 -10e-4,0 0,0 0,-0.001 0,0 -0.87,-0.87 -3.05,3.042 -0.051,0.027 -0.055,0.016 -0.057,0.005 -0.051,-0.005 -0.05,-0.016 -0.047,-0.025 -0.044,-0.033 -2.616,2.616 7.656,0 7.656,0 0.509,-0.139 0.348,-0.356 0.134,-0.479 -0.134,-0.511 0,0 0,0"
     id="polygon20"
     style="fill:#0f0708" />
  <path
     d="m 8.5500251,16.72509 -3.72502,0 -0.4750026,0.825004 -4.22502261,7.300039 -0.125000667048,0.500003 0.125000667048,0.475002 0.35000188,0.375002 0.52500282,0.125001 7.55004051,0 0,-2.500013 -2.3500126,0 -0.1000006,-0.025 -0.1000005,-0.075 -0.075,-0.1 -0.025,-0.100001 0,-4.400023 0.025,-0.05 0,-0.05 0.025,-0.05 0.05,-0.05 2.050011,-2.050011 0.025,-0.025 0.1000006,-0.025 0.05,-0.05 0.025,0 0.3000016,0 0,-0.05 z"
     id="path3555"
     style="fill:#0f0708" />
  <path
     d="m 8.5500251,10.250055 -3.72502,6.475035 3.72502,0 0,-6.475035 z"
     id="polygon22"
     style="fill:#0f0708" />
  <path
     d="m 20.275088,8.0750433 -2.825015,0 0.225001,0.4250023 0.700004,0.7250039 0.175001,0.2500013 0.675003,1.2250062 0.100001,0.300002 0.05,0.300002 -0.05,0.300001 -0.100001,0.275002 -0.525002,0.925005 -0.025,0.15 4.425024,0 -2.825015,-4.8750257 z"
     id="path3619"
     style="fill:#0f0708" />
  <path
     d="m 15.05006,0 0,7.3500394 0.275001,-0.025 0.300002,-0.1000006 0.575003,-0.1250006 0.275002,0 0.275001,0.075 0.250001,0.1500008 0.200001,0.2250012 0.250002,0.5250028 2.825015,0 -0.775004,-1.3500072 -3.60002,-6.22503342 -0.15,-0.22500121 L 15.525062,0.12500067 15.300061,0.02500013 15.05006,0 z"
     id="polygon24"
     style="fill:#0f0708" />
  <path
     d="m 18.674,12.944 -0.173,1.015 -0.105,0.271 -0.172,0.236 -0.242,0.19 -2.566,0.932 -0.365,0.035 -0.296,-0.046 -0.263,-0.121 -0.785,-0.612 -0.104,-0.055 -1.053,-0.228 -0.255,-0.109 -0.23,-0.173 -0.172,-0.23 -0.106,-0.255 -0.214,-1.06 -0.472,-0.871 -0.088,-0.27 -0.034,-0.3 0.032,-0.303 0.085,-0.274 0.964,-1.902 0.236,-0.276 0.372,-0.31 1.687,-0.769 0.331,-0.077 0.365,-0.029 0,0 0,0 0,-7.353 -0.248,0.031 -0.234,0.093 -0.208,0.154 -0.167,0.217 -2.8195,4.8835 -2.8195,4.8835 0,6.516 4.168,-0.011 0.055,0.016 0.051,0.027 0.045,0.037 0.037,0.045 0.027,0.051 0.017,0.056 0.006,6.519 -0.023,0.115 -0.064,0.094 -0.094,0.063 -0.115,0.023 -4.11,0 0,2.519 5.244,0 2.616,-2.616 -0.004,-0.002 -0.009,-0.003 -0.004,-0.002 -0.187,-0.23 -0.272,-0.571 -0.06,-0.617 0.153,-0.603 0.366,-0.53 0.531,-0.366 0.603,-0.153 0.616,0.06 0.571,0.271 0.683,-0.683 -3.004,-3.003 -0.064,-0.098 -0.022,-0.111 0.022,-0.112 0.064,-0.097 0.098,-0.065 0.111,-0.022 0.112,0.022 0.097,0.065 3.004,3.003 3.004,-3.003 0.093,-0.062 0.106,-0.021 0.106,0.018 0.096,0.058 1.351,-1.351 -1.481,-2.564 -4.421,0 0,0 0,0"
     id="polygon26"
     style="fill:#0f0708" />
</svg>
