<?xml version="1.0" encoding="utf-8"?>
<!-- Generator: Adobe Illustrator 21.0.0, SVG Export Plug-In . SVG Version: 6.00 Build 0)  -->
<svg version="1.1" id="Layer_1" xmlns="http://www.w3.org/2000/svg" xmlns:xlink="http://www.w3.org/1999/xlink" x="0px" y="0px"
	 width="43.7436714px" height="42.0040703px" viewBox="0 0 43.7436714 42.0040703"
	 style="enable-background:new 0 0 43.7436714 42.0040703;" xml:space="preserve">
<style type="text/css">
	.st0{fill:none;}
</style>
<g>
	<polygon class="st0" points="28.5184937,17.8329468 27.8039017,16.4280624 26.8397827,15.2139282 25.6470642,14.2192993 
		24.2467041,13.4731445 22.6595917,13.004303 20.9066772,12.8416138 19.203949,13.004303 17.6585083,13.4731445 
		16.2918396,14.2192993 15.1254883,15.2139282 14.1808929,16.4280624 13.4795532,17.8329468 13.0430069,19.3996353 
		12.8927002,21.0993042 13.0431061,22.820755 13.4803467,24.4154053 14.1834717,25.8516235 15.1315918,27.0977783 
		16.3038177,28.1221008 17.6791992,28.8930054 19.2368774,29.3787537 20.9558716,29.5477295 22.7060623,29.3806992 
		24.2872925,28.8995972 25.6797867,28.1345444 26.8635864,27.1154785 27.818924,25.8723679 28.5258789,24.4353027 
		28.9646225,22.8342972 29.1152954,21.0993042 28.9626007,19.3996353 28.5184937,17.8329468 	"/>
	<polygon points="42.1225586,12.7299805 40.1971207,9.1113968 37.6182251,6.0048218 34.4530716,3.4753113 30.769043,1.5879517 
		26.633461,0.4078293 22.1135864,0 17.5594254,0.4180374 13.3627319,1.6242065 9.6004333,3.54673 6.3495483,6.1136475 
		3.6870956,9.2531509 1.6900024,12.8933105 0.4353256,16.9623184 0,21.3882446 0.4182358,25.6703949 1.6257935,29.5999756 
		3.5519485,33.1096573 6.1259766,36.1321411 9.2771606,38.6001358 12.9348145,40.4463501 17.0281601,41.6033936 
		22.7803726,41.9508057 28.3057175,40.7763824 31.9143677,39.0595093 30.5639648,36.4510498 26.1328735,38.3892212 
		21.4865723,39.0595093 17.6542511,38.7180634 14.1290894,37.7310791 10.9739304,36.1544876 8.2515869,34.0443726 
		6.0248337,31.4567108 4.3565063,28.4474487 3.3095016,25.0726395 2.9465332,21.3882446 3.3245926,17.5694962 4.4138794,14.0507202 
		6.147049,10.8963547 8.4567261,8.1709595 11.2755737,5.9389877 14.5362549,4.2648926 18.1713867,3.2131348 22.1135864,2.8482056 
		26.1483383,3.2110825 29.786438,4.2574463 32.9843445,5.9239578 35.6984863,8.1471558 37.8853226,10.8636246 
		39.5012817,14.0100708 40.5027924,17.5230255 40.7430878,23.4376144 39.9733047,27.0080185 38.5767822,29.580574 
		37.6901245,30.4317017 36.7027817,30.9602432 35.6333618,31.1418457 35.0715485,31.0898819 34.5515747,30.9343262 
		34.0837021,30.6757965 33.6780396,30.3148193 33.3448181,29.8518829 33.0941772,29.2875977 32.8814697,9.7044067 
		29.3079224,9.7044067 29.3079224,28.7634888 30.0803833,27.5682983 30.3216171,30.3286743 30.6716309,31.2223511 
		31.1654053,31.984787 31.7888184,32.6136475 32.5276566,33.1066589 34.2950592,33.6762466 35.2952881,33.748291 
		37.099678,33.5219116 38.7332764,32.8604736 40.1745758,31.7905273 41.4020996,30.338623 43.1295776,26.3952637 
		43.7436523,21.2427979 43.3271713,16.7954559 42.1225586,12.7299805 	"/>
	<path d="M28.1418457,12.5838623l-1.9718628-1.588501l-2.6599731-1.1719971L20.2796631,9.366333l-2.3965378,0.2370834
		l-2.1723709,0.6818008l-1.918808,1.0824356l-1.6358185,1.4388046l-1.3235016,1.7510986l-0.9817352,2.019165l-0.610611,2.2431564
		l-0.2100677,2.4229202l0.2364426,2.4867554l0.677681,2.2597046l1.0714417,2.0005188l1.4176941,1.7090149l1.716568,1.3853531
		l1.9678802,1.0294418l2.1717224,0.641304l3.8197174,0.1311111l2.7750092-0.7048416l2.422081-1.3746948l2.0014725-2.0429764
		V14.2902832L28.1418457,12.5838623L28.1418457,12.5838623z M26.8635864,27.1154785l-1.1837997,1.0190659l-1.3924942,0.7650528
		l-1.5812302,0.481102l-1.7501907,0.1670303l-1.7189941-0.1689758l-1.5576782-0.4857483l-1.3753815-0.7709045l-1.172226-1.0243225
		l-0.9481201-1.2461548l-0.703125-1.4362183l-0.4372406-1.5946503l-0.1504059-1.7214508l0.1503067-1.6996689l0.4365463-1.5666885
		l0.7013397-1.4048843l0.9445953-1.2141342l1.1663513-0.9946289l1.3666687-0.7461548l1.5454407-0.4688416l1.7027283-0.1626892
		l1.7529144,0.1626892l1.5871124,0.4688416l1.4003601,0.7461548l1.1927185,0.9946289l0.964119,1.2141342l0.714592,1.4048843
		l0.4441071,1.5666885l0.1526947,1.6996689l-0.1506729,1.734993l-0.4387436,1.6010056l-0.706955,1.4370651L26.8635864,27.1154785
		L26.8635864,27.1154785z"/>
</g>
</svg>
