<?xml version="1.0" encoding="UTF-8" standalone="no"?>
<!-- Created with Inkscape (http://www.inkscape.org/) -->

<svg
   xmlns:dc="http://purl.org/dc/elements/1.1/"
   xmlns:cc="http://creativecommons.org/ns#"
   xmlns:rdf="http://www.w3.org/1999/02/22-rdf-syntax-ns#"
   xmlns:svg="http://www.w3.org/2000/svg"
   xmlns="http://www.w3.org/2000/svg"
   version="1.1"
   width="369.47369"
   height="354.33072"
   id="svg2">
  <defs
     id="defs4" />
  <metadata
     id="metadata7">
    <rdf:RDF>
      <cc:Work
         rdf:about="">
        <dc:format>image/svg+xml</dc:format>
        <dc:type
           rdf:resource="http://purl.org/dc/dcmitype/StillImage" />
        <dc:title></dc:title>
      </cc:Work>
    </rdf:RDF>
  </metadata>
  <g
     transform="translate(-160.98532,-139.00688)"
     id="layer1">
    <path
       d="m 337.57019,247.4715 -14.38182,1.37413 -13.05331,3.95999 -11.54334,6.30227 -9.85141,8.40098 -7.97837,10.25498 -5.92375,11.86614 -3.68722,13.23277 -1.26954,14.35598 1.27038,14.53996 3.69308,13.46896 5.93884,12.13078 8.00814,10.52545 9.90102,8.65177 11.61693,6.51132 13.15667,4.1028 14.51922,1.42722 14.7827,-1.41079 13.3556,-4.06355 11.76148,-6.4619 9.99877,-8.60737 8.06911,-10.49973 5.97118,-12.13794 3.70578,-13.52264 1.27263,-14.65434 -1.28971,-14.35598 -3.75108,-13.23277 0,0 -6.03568,-11.86614 -8.14328,-10.25498 -10.07411,-8.40098 -11.82791,-6.30227 -13.40529,-3.95999 -14.80571,-1.37413"
       id="polygon2990"
       style="fill:none" />
    <path
       d="m 347.76415,139.00688 -38.46598,3.53089 -35.44669,10.18771 -31.77765,16.23828 -27.45808,21.68106 -22.48797,26.5173 -16.86813,30.74603 -10.59742,34.36821 -3.67691,37.38288 3.53256,36.16849 10.19944,33.19057 16.26896,29.64395 21.74111,25.52892 26.61597,20.84552 30.89378,15.59375 34.57378,9.77279 48.58514,2.93436 46.66894,-9.91958 30.47988,-14.5013 -11.40597,-22.03192 -37.4265,16.37045 -39.24423,5.66147 -32.36908,-2.88396 -29.77471,-8.3364 -26.64954,-13.31643 -22.99383,-17.82274 -18.80792,-21.85627 -14.09125,-25.41725 -8.84336,-28.50478 -3.06575,-31.11964 3.19321,-32.25445 9.20049,-29.72077 14.63894,-26.64284 19.50831,-23.01961 23.80894,-18.85199 27.54082,-14.13997 30.70356,-8.88351 33.29714,-3.08231 34.07888,3.06498 30.72863,8.83794 27.01059,14.07592 22.92457,18.77789 18.47076,22.94421 13.64894,26.57595 8.45909,29.6716 2.02962,49.95662 -6.50185,30.15684 -11.7955,21.72868 -7.48901,7.18892 -8.33943,4.46423 -9.03268,1.53388 -4.74527,-0.43887 -4.39187,-1.31388 -3.95182,-2.18362 -3.42635,-3.04894 -2.81451,-3.91012 -2.117,-4.76614 -1.79659,-165.40626 -30.1834,0 0,160.97946 6.52447,-10.09499 2.03754,23.31507 2.95634,7.5483 4.17058,6.43979 5.26556,5.31157 6.24048,4.16414 14.92808,4.81094 8.44827,0.60847 15.24049,-1.91207 13.79792,-5.58673 12.17371,-9.03714 10.36808,-12.26327 14.59087,-33.30695 5.18667,-43.51947 -3.51774,-37.56375 -10.17456,-34.33839 0,0 -16.2629,-30.56378 -21.78223,-26.23918 -26.73395,-21.3651 -31.11656,-15.94128 -34.93052,-9.96772 -38.1764,-3.44466"
       id="polygon2992" />
    <path
       d="m 408.51657,322.16313 -2.03125,0 -0.84375,9.71875 -3.71875,13.5 -5.96875,12.15625 -8.0625,10.5 -10,8.59375 -11.78125,6.46875 -13.34375,4.0625 -14.78125,1.40625 -14.53125,-1.40625 -13.15625,-4.125 -11.59375,-6.5 -9.90625,-8.65625 -8,-10.53125 -5.9375,-12.125 -3.71875,-13.46875 -0.8125,-9.59375 -32.71875,0 1.65625,17.28125 5.71875,19.0625 9.03125,16.90625 12,14.4375 14.5,11.71875 16.59375,8.6875 18.34375,5.40625 32.28125,1.125 23.4375,-5.96875 20.4375,-11.625 16.90625,-17.25 0,-59.78125 z"
       id="path3806" />
    <path
       d="m 332.26657,218.13188 -20.21875,2 -18.375,5.75 -16.1875,9.125 -13.8125,12.15625 -11.1875,14.8125 -8.28125,17.03125 -5.1875,18.96875 -1.75,20.46875 0.34375,3.71875 32.71875,0 -0.4375,-4.9375 1.25,-14.375 3.6875,-13.21875 5.9375,-11.875 7.96875,-10.25 9.84375,-8.40625 11.5625,-6.28125 13.03125,-3.96875 14.40625,-1.375 14.78125,1.375 13.40625,3.96875 11.84375,6.28125 10.0625,8.40625 8.15625,10.25 6.03125,11.875 3.75,13.21875 1.28125,14.375 -0.40625,4.9375 2.03125,0 0,-62.46875 -9.84375,-14.40625 -16.65625,-13.40625 -22.46875,-9.90625 -27.28125,-3.84375 z"
       id="path2994" />
  </g>
  <style
     type="text/css"
     id="style2986" />
</svg>
