<?xml version="1.0" encoding="UTF-8" standalone="no"?>
<!-- Created with Inkscape (http://www.inkscape.org/) -->

<svg
   xmlns:dc="http://purl.org/dc/elements/1.1/"
   xmlns:cc="http://creativecommons.org/ns#"
   xmlns:rdf="http://www.w3.org/1999/02/22-rdf-syntax-ns#"
   xmlns:svg="http://www.w3.org/2000/svg"
   xmlns="http://www.w3.org/2000/svg"
   version="1.1"
   width="354.33133"
   height="354.33069"
   viewBox="0 0 283.46479 283.4638"
   id="svg2">
  <title
     id="title4">roshamglo logo</title>
  <metadata
     id="metadata12">
    <rdf:RDF>
      <cc:Work
         rdf:about="">
        <dc:format>image/svg+xml</dc:format>
        <dc:type
           rdf:resource="http://purl.org/dc/dcmitype/StillImage" />
        <dc:title>roshamglo logo</dc:title>
      </cc:Work>
    </rdf:RDF>
  </metadata>
  <defs
     id="defs10" />
  <path
     d="m 65.274937,283.47449 7.924993,0 9.82499,0 9.849991,0 9.824989,0 9.82499,0 9.82499,0 9.84999,0 9.82499,0 9.82499,0 9.82499,0 9.82499,0 9.85,0 9.82499,0 9.82499,0 9.82499,0 9.82499,0 9.84999,0 9.82499,0 9.82499,0 9.82499,0 9.82499,0 4.925,-1.025 4.59999,-3.1 3.125,-4.62499 1.025,-5.625 -0.025,-9.87499 0,-9.84999 0,-9.84999 0,-9.87499 -0.025,-9.84999 0,-9.84999 0,-9.87499 0,-9.84999 0,-9.84999 -0.025,-9.84999 0,-9.87499 0,-9.84999 0,-9.84999 -0.025,-9.87499 0,-9.85 0,-9.84999 0,-9.87499 0,-9.849987 -0.025,-9.84999 0,-9.874991 0,-9.84999 0,-9.849991 -0.025,-9.87499 0,-9.849991 0,-9.84999 0,-9.874991 -0.425,-2.399998 -0.3,-0.9749987 -1.2,-2.5749975 -1.7,-2.2749978 -2.1,-1.8749982 -3.67499,-1.94999815 -2.375,-0.72499930259 -9.89999,0.0499999526 -9.89999,0.04999995 -9.89999,0.02499998 -9.89999,0.0499999 -9.92499,0.05 -9.89999,0.0499999 -9.89999,0.05 -9.9,0.025 -9.89999,0.05 -9.89999,0.05 -9.89999,0.05 -9.89999,0.05 -9.89999,0.025 -9.89999,0.05 -9.89999,0.05 -9.89999,0.05 -9.89999,0.05 -9.89999,0.05 -2.399998,0.99999907 -2.374997,0.7499993 -3.474997,2.1999979 -6.874993,6.8749927 -6.849994,6.899993 -6.074994,6.074995 0,40.574961 2.974997,-2.974998 6.424994,-6.399993 6.374994,-6.399994 0.05,7.974992 0.025,7.949992 0.025,7.974993 0.025,7.949992 -8.024992,0.05 -7.874993,0.025 0,28.749977 2.924997,-0.025 9.924991,-0.025 9.89999,-0.05 8.999992,-0.175 4.249993,-0.875 4.625,-3.15 3.075,-4.65 0.97499,-5.624991 -0.025,-9.44999 -0.05,-9.474991 -0.05,-9.449991 -0.025,-9.449991 -0.05,-9.474991 -0.05,-9.449991 -0.025,-9.474991 7.3,0 7.29999,0 7.32499,0 0.5,-0.15 9.44999,-0.025 9.42499,-0.05 9.425,-0.025 9.44999,-0.05 9.42499,-0.025 9.42499,-0.05 9.42499,-0.05 9.44999,-0.025 9.42499,-0.05 9.42499,-0.025 9.42499,-0.05 9.44999,-0.025 9.42499,-0.05 0,9.82499 0,9.849991 0,9.82499 0,9.824991 0,9.82499 0,9.824991 0,9.824991 0,9.849993 0,9.82499 0,9.82499 0,9.82499 0,9.82499 0,9.82499 0,9.84999 0,9.82499 0,9.82499 0,9.82499 0,9.82499 0,9.82499 0,9.82499 0,9.85 0,9.82499 0,9.82499 -9.82499,0 -9.84999,0 -9.82499,0 -9.82499,0 -9.82499,0 -9.84999,0 -9.82499,0 -9.82499,0 -9.84999,0 -9.82499,0 -9.82499,0 -9.82499,0 -9.84999,0 -9.82499,0 -9.82499,0 -9.824994,0 -9.84999,0 -9.824991,0 -9.82499,0 -2.649998,0 0,28.74997 0,0"
     id="path3012"
     style="fill:#0f0708" />
  <path
     d="m 28.599972,154.07461 -28.599972,0 0,8.2 0,9.82499 0,9.84999 0,9.82499 0,9.84999 0,9.82499 0,9.84999 0,9.82499 0,9.84999 0,9.82499 0,9.82499 0,9.84999 0.84999918,4.225 3.12499702,4.64999 4.6249955,3.1 5.6249943,1.025 9.824991,0 9.82499,0 9.849991,0 9.82499,0 9.824991,0 1.899998,0 0,-28.74997 -7.174993,0 -9.84999,0 -9.824991,0 -9.824991,0 0,-9.62499 0,-9.625 0,-9.64999 0,-9.62499 0,-9.62499 0,-9.62499 0,-9.64999 0,-9.62499 0,-9.62499 0,-9.62499 0,-4.35 0,0"
     id="path3021"
     style="fill:#0f0708" />
  <path
     d="m 28.599972,109.69701 -28.599972,0 0,2.83692 0,9.9799 0,9.95456 0,9.97989 0,9.95457 0,1.67176 28.599972,0 0,-5.34456 0,-9.77725 0,-9.75193 0,-9.75193 0,-9.75193 0,0"
     id="path3032"
     style="fill:#0f0708" />
  <path
     d="m 65.274937,24.624738 -0.799999,0.799999 -6.874993,6.899993 -6.849994,6.874994 -6.874993,6.899993 -6.874994,6.874993 -6.849993,6.899994 -6.874993,6.874993 -6.874994,6.899993 -6.8499932,6.874994 -0.8499992,0.849999 40.3999614,0 6.349994,-6.349994 6.399993,-6.399994 3.424997,-3.424996 0,-40.574961 0,0"
     id="path6"
     style="fill:#0f0708" />
  <path
     d="m 8.7165053,81.363843 57.2922597,-0.0149 0,28.766117 -66.00715613,0 -2.8903e-4,-16.743887 2.66903646,-5.951671 6.046149,-6.055659"
     id="rect3073"
     style="fill:#000000;fill-opacity:1;stroke:none" />
</svg>
