<svg xmlns="http://www.w3.org/2000/svg" width="1.06193cm" height="0.92892cm" viewBox="0 0 30.10207 26.33173">
  <title>roshamglo logos</title>
  <polygon points="8.268 19.414 6.5 19.423 6.5 23.223 8.555 23.223 8.555 19.136 8.528 19.244 8.466 19.333 8.377 19.392 8.268 19.414 8.268 19.414" style="fill: #0f0708"/>
  <polygon points="12.369 17.353 9.188 17.367 9.186 17.367 9.181 17.37 9.179 17.37 8.555 17.37 8.562 19.118 8.561 19.122 8.556 19.131 8.555 19.136 8.555 23.223 12.369 23.223 12.369 17.353 12.369 17.353" style="fill: #0f0708"/>
  <polygon points="7.965 17.785 6.921 18.83 7.97 18.825 7.965 17.785 7.965 17.785" style="fill: #0f0708"/>
  <polygon points="18.45 10.518 18.051 9.78 17.207 8.858 16.747 7.943 16.646 7.802 16.532 7.717 16.456 7.695 16.368 7.689 14.77 7.968 13.457 8.459 13.811 8.975 13.826 9.022 13.835 9.07 13.79 9.631 15.228 10.933 15.297 11.028 15.325 11.138 15.308 11.25 15.248 11.351 15.206 11.388 15.157 11.414 15.105 11.43 15.051 11.438 15.045 11.44 15.035 11.446 15.029 11.448 14.976 11.443 14.925 11.429 14.876 11.405 14.433 11.011 14.433 11.467 14.409 11.582 14.346 11.676 14.252 11.739 14.137 11.762 14.022 11.739 13.928 11.676 13.864 11.582 13.841 11.467 13.841 10.475 13.239 9.92 13.207 9.86 13.19 9.795 13.236 9.172 12.941 8.76 12.714 8.956 12.532 9.17 11.655 10.911 11.593 11.099 11.57 11.293 11.594 11.48 11.657 11.659 12.119 12.507 12.219 12.845 12.338 13.573 12.396 13.734 12.483 13.86 12.613 13.951 12.776 14.012 13.829 14.244 14.145 14.428 14.747 14.919 14.901 15.001 15.051 15.032 15.333 15.003 17.641 14.171 17.806 14.048 17.891 13.917 17.948 13.74 18.063 12.94 18.164 12.581 18.676 11.672 18.749 11.482 18.776 11.293 18.749 11.104 18.676 10.912 18.45 10.518 18.45 10.518" style="fill: #0f0708"/>
  <polygon points="16.816 21.576 16.584 21.908 16.481 22.283 16.504 22.671 16.65 23.04 18.28 21.409 17.911 21.264 17.523 21.241 17.148 21.343 16.816 21.576 16.816 21.576" style="fill: #0f0708"/>
  <polygon points="22.824 21.576 22.492 21.344 22.117 21.241 21.729 21.264 21.36 21.409 22.991 23.04 23.136 22.671 23.16 22.283 23.057 21.908 22.824 21.576 22.824 21.576" style="fill: #0f0708"/>
  <polygon points="21.36 21.409 22.512 22.56 21.36 21.409 21.36 21.409 21.36 21.409 21.36 21.409 21.36 21.409 21.36 21.409" style="fill: #0f0708"/>
  <polygon points="29.968 24.847 24.576 15.508 23.225 16.859 23.229 16.861 23.238 16.863 23.242 16.866 23.307 16.963 23.329 17.075 23.307 17.186 23.242 17.284 20.238 20.287 20.921 20.97 21.492 20.698 22.109 20.639 22.712 20.792 23.242 21.158 23.609 21.688 23.762 22.291 23.702 22.908 23.43 23.479 23.925 23.974 23.43 23.479 23.242 23.709 23.196 23.747 23.144 23.774 23.089 23.79 23.033 23.795 22.977 23.79 22.922 23.774 22.871 23.747 20.692 21.577 20.692 21.576 20.691 21.576 20.69 21.576 20.69 21.576 20.69 21.575 20.69 21.575 19.82 20.705 16.77 23.747 16.719 23.774 16.664 23.79 16.607 23.795 16.556 23.79 16.506 23.774 16.459 23.749 16.415 23.716 13.799 26.332 29.111 26.332 29.62 26.193 29.968 25.837 30.102 25.358 29.968 24.847 29.968 24.847" style="fill: #0f0708"/>
  <polygon points="5.909 19.128 5.915 19.069 5.932 19.014 5.959 18.963 5.995 18.92 5.995 18.919 5.995 18.919 8.049 16.866 8.075 16.846 8.17 16.815 8.234 16.783 8.257 16.779 8.555 16.778 8.555 10.262 0.134 24.847 0 25.358 0.134 25.837 0.482 26.193 0.991 26.332 8.555 26.332 8.555 23.813 6.204 23.813 6.089 23.79 5.995 23.727 5.932 23.633 5.909 23.518 5.909 19.128 5.909 19.128" style="fill: #0f0708"/>
  <polygon points="15.635 7.236 16.196 7.109 16.482 7.104 16.759 7.171 17.009 7.33 17.198 7.552 17.674 8.495 18.371 9.219 18.558 9.476 19.233 10.709 19.331 10.99 19.368 11.293 19.33 11.596 19.233 11.877 18.71 12.809 18.674 12.944 23.095 12.944 15.908 0.495 15.741 0.278 15.533 0.124 15.299 0.031 15.051 0 15.051 7.353 15.326 7.317 15.635 7.236 15.635 7.236" style="fill: #0f0708"/>
  <polygon points="18.674 12.944 18.501 13.959 18.396 14.23 18.224 14.466 17.982 14.656 15.416 15.588 15.051 15.623 14.755 15.577 14.492 15.456 13.707 14.844 13.603 14.789 12.55 14.561 12.295 14.452 12.065 14.279 11.893 14.049 11.787 13.794 11.573 12.734 11.101 11.863 11.013 11.593 10.979 11.293 11.011 10.99 11.096 10.716 12.06 8.814 12.296 8.538 12.668 8.228 14.355 7.459 14.686 7.382 15.051 7.353 15.051 7.353 15.051 7.353 15.051 0 14.803 0.031 14.569 0.124 14.361 0.278 14.194 0.495 8.555 10.262 8.555 16.778 12.723 16.767 12.778 16.783 12.829 16.81 12.874 16.847 12.911 16.892 12.938 16.943 12.955 16.999 12.961 23.518 12.938 23.633 12.874 23.727 12.78 23.79 12.665 23.813 8.555 23.813 8.555 26.332 13.799 26.332 16.415 23.716 16.411 23.714 16.402 23.711 16.398 23.709 16.211 23.479 15.939 22.908 15.879 22.291 16.032 21.688 16.398 21.158 16.929 20.792 17.532 20.639 18.148 20.699 18.719 20.97 19.402 20.287 16.398 17.284 16.334 17.186 16.312 17.075 16.334 16.963 16.398 16.866 16.496 16.801 16.607 16.779 16.719 16.801 16.816 16.866 19.82 19.869 22.824 16.866 22.917 16.804 23.023 16.783 23.129 16.801 23.225 16.859 24.576 15.508 23.095 12.944 18.674 12.944 18.674 12.944" style="fill: #0f0708"/>
</svg>
