<?xml version="1.0" encoding="UTF-8" standalone="no"?>
<!-- Created with Inkscape (http://www.inkscape.org/) -->

<svg
   xmlns:dc="http://purl.org/dc/elements/1.1/"
   xmlns:cc="http://creativecommons.org/ns#"
   xmlns:rdf="http://www.w3.org/1999/02/22-rdf-syntax-ns#"
   xmlns:svg="http://www.w3.org/2000/svg"
   xmlns="http://www.w3.org/2000/svg"
   version="1.1"
   width="348.76373"
   height="354.33069"
   viewBox="0 0 279.01175 283.46388"
   id="svg3844">
  <title
     id="title3846">roshamglo logo</title>
  <metadata
     id="metadata3854">
    <rdf:RDF>
      <cc:Work
         rdf:about="">
        <dc:format>image/svg+xml</dc:format>
        <dc:type
           rdf:resource="http://purl.org/dc/dcmitype/StillImage" />
        <dc:title>roshamglo logo</dc:title>
      </cc:Work>
    </rdf:RDF>
  </metadata>
  <defs
     id="defs3852" />
  <path
     d="m 272.52575,162.77472 -27.05008,0 -1.7,3.02501 -4.37501,7.82502 -4.35002,7.82502 -1.625,5.92502 -1.62501,5.92502 -1.225,8.57502 -1.225,8.57502 -1.20001,8.57503 -1.45,4.95001 -2.025,3.55001 -4.32502,3.60001 -8.60002,3.20001 -8.57502,3.20001 -8.60003,3.20001 -8.57502,3.2 -8.60002,3.20001 -8.57503,3.20001 -8.60002,3.20001 -8.57502,3.20001 -7.95003,2.02501 -7.12502,0.925 -4.17501,-0.525 -4.72501,-2.30001 -6.47502,-5.05001 -6.47502,-5.05002 -6.47501,-5.05001 -6.47502,-5.02502 -6.400019,-3.05 -8.400023,-1.82501 -8.425023,-1.825 -8.425023,-1.82501 -8.400023,-1.825 -4.575013,-1.57501 -3.475009,-2.125 -2.650007,-3.42501 -1.925006,-4.87502 -1.925005,-9.15002 -1.950005,-9.12503 -1.950006,-9.15002 -1.925005,-9.12503 -3.70001,-6.75002 -3.70001,-6.75001 -0.825002,-1.50001 -26.9500741,0 1.9250053,3.47501 3.7250098,6.70002 3.725011,6.72502 3.70001,6.72502 1.850005,8.97502 1.850005,8.97503 1.850005,9.00002 1.825005,8.97503 3.900011,8.95002 3.150008,4.00001 3.125009,4.00001 8.075022,5.87502 8.750024,3.62501 8.300023,1.75 8.275022,1.72501 8.300023,1.75 8.275023,1.75001 2.875007,1.375 6.650019,5.15001 6.650016,5.15002 6.65002,5.12501 6.65002,5.15002 4.75001,2.1 4.75001,2.10001 9.52503,1.575 5.17501,-0.475 5.17502,-0.475 9.37502,-2.10001 8.57503,-3.05 8.57502,-3.02501 8.55002,-3.05001 8.57503,-3.05001 8.57502,-3.02501 8.57503,-3.05001 8.55002,-3.05 8.57502,-3.02501 4.75001,-2.47501 4.72502,-2.47501 4.25001,-3.47501 4.25001,-3.475 2.92501,-4.17502 2.92501,-4.20001 3.42501,-9.25002 1.55,-9.00003 1.55001,-9.02502 1.55,-9.00003 1.55,-9.00002 4.37502,-7.82502 4.35001,-7.80002 4.37501,-7.80003 2.42501,-4.35001 z"
     id="path4440"
     style="fill:#0f0708" />
  <path
     d="m 97.350266,63.724451 -28.725078,0 1.225003,1.675005 3.950011,5.350014 -0.750002,9.350026 -0.750002,9.325025 1.050003,4.550013 1.100003,2.100006 6.400017,5.87502 6.400018,5.85001 6.400017,5.87502 0.025,8.15002 0.025,8.15002 0.025,8.15002 0.025,8.17503 0.725002,3.50001 2.600007,3.85001 3.825015,2.575 4.65001,0.92501 4.67501,-0.92501 3.85001,-2.575 2.60001,-3.87501 0.8,-4.65002 0,-9.92502 5.12502,4.60001 5.12501,4.60001 1.625,1.025 0.75001,0.37501 1.525,0.525 2.62501,0.425 2.375,-0.15 2.30001,-0.6 3.30001,-1.85001 1.625,-1.475 2.27501,-3.82501 0.675,-4.60002 -1.125,-4.50001 -2.90001,-3.75001 -6.60002,-5.97501 -6.60002,-5.97502 -6.62501,-6.00002 -6.60002,-5.97501 -6.60002,-5.97502 -6.60002,-6.000017 -6.625017,-5.975016 0.700002,-8.325023 0.700002,-8.325023 -0.450001,-3.400009 -0.125001,-0.350001 z"
     id="path4445"
     style="fill:#0f0708" />
  <path
     d="m 236.77565,61.699446 -31.95009,0 6.52502,7.125019 6.77502,7.35002 6.77502,7.35002 6.77501,7.35002 4.10002,7.400021 4.07501,7.375024 4.10001,7.40002 4.07501,7.37502 4.10001,7.40002 2.20001,5.55001 0.95,5.27502 -0.65,5.60001 -2.12501,5.90002 -4.35001,7.82502 -2.67501,4.80001 27.05008,0 1.95,-3.47501 1.67501,-4.92501 1.675,-4.92501 0.6,-5.37502 0.575,-5.35001 -0.725,-5.25002 -0.725,-5.22501 -1.725,-4.82502 -1.75001,-4.80001 -4.37501,-7.85002 -4.40001,-7.82502 -4.57502,-8.350024 -4.57501,-8.325023 -4.55001,-8.350023 -5.57502,-6.075017 -5.57501,-6.100016 -3.67501,-4.050011 z"
     id="path4478"
     style="fill:#0f0708" />
  <path
     d="m 184.70051,25.474346 0.55,0.325001 3.27501,4.200012 4.00001,7.850021 4.02501,7.875022 4.02501,7.875021 4.02501,7.850022 0.225,0.250001 31.95009,0 -1.87501,-2.050006 -5.57501,-6.075017 -5.55002,-6.100016 -4.07501,-8.000022 -4.10001,-8.025022 -4.07501,-8.000022 -4.07501,-8.025022 -3.47501,-3.900011 -3.47501,-3.9250105 -4.55001,-2.7250075 -4.55002,-2.7250074 -4.90001,-1.075003 -1.8,-0.40000107 0,24.80006747 z"
     id="path4594"
     style="fill:#0f0708" />
  <path
     d="m 184.70051,25.474346 0,-24.80006747 -3.07501,-0.67500185142 -9.77503,0.37500103142 -6.75002,1.57500429 -6.72502,1.5750043 -6.75001,1.5750043 -8.27503,2.1500059 -7.07502,0.7500021 -7.07502,0.750002 -7.07502,0.7500021 -1.4,0.5000014 0,24.4250669 6.20002,-1.000003 9.20002,-1.475004 9.20003,-1.500004 9.20002,-1.475004 7.75002,-2.050006 7.72503,-2.050005 8.12502,-1.175003 3.85001,0.125 2.72501,1.650004 z"
     id="path4458"
     style="fill:#0f0708" />
  <path
     d="m 31.900087,64.424453 -1.150003,2.275006 -4.475012,8.900025 -4.500012,8.900024 -4.475013,8.900024 -4.475012,8.900028 -4.5000122,8.87502 -2.4000066,4.77501 26.4500728,0 1.900005,-3.80001 4.050011,-8.10002 4.050011,-8.075021 4.050011,-8.100022 4.025011,-8.075022 4.050011,-8.100022 4.050011,-4.550012 2.425007,-2.725008 -29.07508,0 z"
     id="path4456"
     style="fill:#0f0708" />
  <path
     d="m 31.900087,64.424453 29.07508,0 1.650004,-1.850005 3.300009,-2.550007 2.700008,3.70001 28.725078,0 -0.475001,-1.400004 -5.100014,-7.150019 -5.075014,-7.15002 7.750022,-3.275009 7.775021,-3.275009 7.75002,-3.300009 7.75002,-3.275009 3.00001,-0.475001 0,-24.4250669 -6.52502,2.4000069 -7.90002,2.875007 -7.900021,2.900008 -7.925021,2.900008 -7.900022,2.900008 -7.900022,2.900008 -7.100019,4.125012 -7.075019,4.125011 -7.10002,4.125011 -5.000014,4.375012 -5.000013,4.375012 -4.075011,4.900013 -4.075012,4.900014 -3.350009,6.625018 z"
     id="path3848"
     style="fill:#0f0708" />
  <path
     d="m 5.9690998,115.8967 26.4719922,-0.0407 -6.013651,12.04105 -2.613643,11.94105 2.886371,11.04105 6.486383,11.94105 -26.9691459,-0.03 -1.8760839,-3.23675 -3.0404684,-9.21673 -1.25171826,-10.27342 1.04577476,-11.09758 1.4430034,-4.5986 1.436023,-4.60617 1.9951631,-3.86425"
     id="rect4552"
     style="fill:#000708;fill-opacity:1;stroke:none" />
</svg>
