<svg xmlns="http://www.w3.org/2000/svg" width="0.41873cm" height="0.42508cm" viewBox="0 0 11.8695 12.04948">
  <title>roshamglo logo</title>
  <path d="M11.64339.83138,11.6263.73421,11.61458.69466l-.04883-.103L11.4974.49935,11.41292.42367,11.26449.34505l-.0957-.02881L3.98714.349,3.89.38949,3.79476.42025,3.65462.50863.33431,3.83919l-.07812.145-.0293.09619L.2264,11.21566l.03418.17041.126.1875.18652.125.22656.04053H11.099l.19775-.04053.186-.125.126-.187.04053-.22656ZM1.37874,4.7596l2.39453-.01074.36328-.00732.1709-.03516.18652-.127.124-.187.03955-.22656L4.64582,1.4974h.88331l.021-.00635,4.94092-.02v9.10986H1.37874Zm.82471-1.16211L3.493,2.30794,3.4974,3.59163Z" style="fill: #0f0708"/>
</svg>
