<?xml version="1.0" encoding="UTF-8" standalone="no"?>
<!-- Created with Inkscape (http://www.inkscape.org/) -->

<svg
   xmlns:dc="http://purl.org/dc/elements/1.1/"
   xmlns:cc="http://creativecommons.org/ns#"
   xmlns:rdf="http://www.w3.org/1999/02/22-rdf-syntax-ns#"
   xmlns:svg="http://www.w3.org/2000/svg"
   xmlns="http://www.w3.org/2000/svg"
   version="1.1"
   width="422.0145"
   height="354.33072"
   viewBox="0 0 337.61147 283.46434"
   id="svg2">
  <title
     id="title4">roshamglo logo 7</title>
  <metadata
     id="metadata32">
    <rdf:RDF>
      <cc:Work
         rdf:about="">
        <dc:format>image/svg+xml</dc:format>
        <dc:type
           rdf:resource="http://purl.org/dc/dcmitype/StillImage" />
        <dc:title>roshamglo logo 7</dc:title>
      </cc:Work>
    </rdf:RDF>
  </metadata>
  <defs
     id="defs30" />
  <path
     d="m 94.747566,179.18269 -1.364416,0.32788 -1.702876,0.76153 -5.751267,5.73011 -5.750659,5.72951 -5.751252,5.7301 -5.751505,5.73035 -0.486536,0.64519 -0.592304,1.16346 -0.274999,1.43845 -0.0021,9.60798 -0.0021,9.60873 -0.0021,9.6077 -0.0021,9.60734 -0.0021,9.60838 0.296152,1.61826 0.973072,1.6923 1.512492,1.1846 1.935566,0.53942 8.848037,0.004 8.847023,0.004 8.848539,0.004 8.846837,0.004 8.84694,0.004 8.84806,0.004 8.84765,0.004 8.8473,0.004 1.61827,-0.29615 1.69229,-0.96249 1.18461,-1.52307 0.53942,-1.91441 -0.003,-8.96439 -0.003,-8.96336 -0.003,-8.9649 -0.003,-8.96318 -0.003,-8.96327 -0.003,-8.96442 -0.003,-8.964 -0.003,-8.96364 -0.34904,-1.02595 0,0 -0.54999,-1.02596 -1.47019,-1.36441 -2.02018,-0.67692 -9.73701,0.0275 -9.73776,0.0275 -9.73673,0.0275 -9.73636,0.0275 -9.737404,0.0275"
     id="polygon20"
     style="fill:none" />
  <path
     d="m 238.81506,221.89207 -5.6269,2.59133 -5.22497,-5.22497 6.28686,-6.28474 6.28735,-6.28524 6.28668,-6.28456 6.28746,-6.28535 6.2861,-6.28398 0.93076,-1.35384 0.50769,-1.88268 -0.23269,-1.91441 -0.97307,-1.73461 -1.8298,-1.26922 -1.78749,-0.43365 -1.84037,0.23269 -1.68172,0.95192 -6.33974,6.33128 -6.34024,6.33178 -6.33956,6.33109 -6.34035,6.33189 -6.33898,6.33052 -6.28686,-6.28474 -6.28735,-6.28524 -6.28668,-6.28456 -6.28746,-6.28535 -6.2861,-6.28398 -1.35384,-0.94134 -1.88268,-0.50769 -1.91441,0.23269 -1.73461,0.98365 -1.22691,1.57595 -0.51827,1.88268 0.24327,1.93557 0.98365,1.7346 6.33128,6.33974 6.33178,6.34024 6.33109,6.33956 6.33189,6.34035 6.33052,6.33898 -5.2144,5.2144 -5.03459,-2.40095 -7.34034,-0.825 -7.21343,1.71346 -6.36727,4.27305 -4.46344,6.24035 -1.94614,7.17112 0.60288,7.35092 3.14133,6.84323 2.2846,2.88748 2.05192,1.30096 1.84037,0.3173 1.89326,-0.44422 1.0048,-0.62404 6.3884,-6.36724 6.38889,-6.36774 6.38821,-6.36706 6.38902,-6.36786 6.38762,-6.36647 6.42647,6.40743 6.42698,6.40794 6.42628,6.40725 6.42709,6.40805 6.4257,6.40666 0.98365,0.47596 1.11057,0.32788 1.92499,-0.0635 1.78749,-0.80384 2.8346,-3.19421 3.19421,-6.59997 0.825,-7.34034 -1.71346,-7.20285 0,0 -4.26247,-6.37785 -6.25093,-4.46344 -7.17112,-1.93556 -7.37207,0.59234"
     id="polygon22"
     style="fill:none" />
  <path
     d="m 210.47963,138.23964 2.76056,-4.87065 2.76057,-4.87064 1.19518,-3.34229 0.50769,-3.68075 -0.41249,-3.77595 -1.14231,-3.43748 -3.74421,-6.8591 -3.74421,-6.85909 -2.17883,-3.003832 -3.87114,-4.040363 -3.87113,-4.040362 -2.43797,-4.918243 -2.43796,-4.918243 -2.30576,-2.781716 -3.14133,-2.094219 -3.81825,-1.025956 -3.35286,0.07404 -6.48362,1.4173 -3.42691,0.899034 -2.76056,0.349036 -3.89229,0.306729 -3.88171,0.87788 -6.24739,2.834597 -6.24737,2.834585 -6.24744,2.834619 -4.46344,3.638441 -2.79229,3.225945 -3.58203,7.033608 -3.58201,7.03358 -3.58206,7.03366 -1.04711,3.27883 -0.42307,3.64901 0.37019,3.68075 1.03653,3.29999 2.64422,4.90238 2.64421,4.90237 1.06297,5.51584 1.06298,5.51583 1.26923,3.12018 2.11537,2.90864 2.86633,2.25287 3.16248,1.4173 5.90718,1.30096 5.90718,1.30095 0.65577,0.42307 4.14084,3.2471 4.14085,3.2471 3.23652,1.53364 3.71248,0.64519 4.44228,-0.35961 7.10513,-2.56758 7.10438,-2.5673 7.10511,-2.56757 7.10542,-2.56769 3.14133,-2.33749 0,0 2.24229,-2.95094 1.375,-3.37402 0.98894,-5.71679 0.98893,-5.7168 0.35961,-1.29038"
     id="polygon24"
     style="fill:none" />
  <path
     d="m 256.0999,142.27488 -35.42498,0 0,69.69998 0.125,0.125 6.32499,-6.35 6.35,-6.325 6.35,-6.325 6.325,-6.34999 6.35,-6.325 1.67499,-0.95 1.825,-0.225 1.8,0.425 1.825,1.275 0.975,1.725 0.25,1.925 -0.525,1.875 -0.925,1.375 -6.29999,6.27499 -6.275,6.275 -6.3,6.3 -6.275,6.275 -6.275,6.27499 5.225,5.225 5.625,-2.575 7.35,-0.6 7.17499,1.925 6.25,4.475 4.275,6.375 1.7,7.2 -0.825,7.34999 -3.175,6.6 -2.85,3.2 -1.775,0.8 -1.925,0.05 -1.125,-0.325 -0.97499,-0.475 -6.425,-6.4 -6.425,-6.4 -6.425,-6.42499 -6.425,-6.4 -6.42499,-6.425 -0.125,0.125 0,56.92498 7.69999,0 9.95,0 9.925,0 9.92499,0 9.925,0 9.925,0 9.94999,0 9.925,0 9.92499,0 9.925,0 9.925,0 9.92499,0 -3.975,-6.9 -3.97499,-6.9 -4.95,-8.54999 -4.925,-8.55 -4.925,-8.55 -4.95,-8.54999 -4.92499,-8.55 -4.925,-8.55 -4.95,-8.54999 -4.925,-8.55 -4.925,-8.55 -4.95,-8.54999 -4.92499,-8.525 -4.95,-8.55 -4.925,-8.54999 -4.925,-8.55 -4.475,-7.725 z"
     id="path3912"
     style="fill:#0f0708" />
  <path
     d="m 107.77496,283.47483 1.45,0 9.925,0 9.94999,0 9.925,0 9.92499,0 9.925,0 9.925,0 9.94999,0 9.925,0 9.925,0 9.92499,0 9.925,0 2.225,0 0,-56.92498 -6.275,6.25 -6.4,6.375 -6.375,6.37499 -6.39999,6.35 -6.375,6.375 -1,0.625 -1.9,0.45 -1.825,-0.325 -2.075,-1.3 -2.275,-2.875 -3.15,-6.85 -0.6,-7.34999 1.95,-7.175 4.475,-6.25 6.375,-4.275 7.2,-1.7 7.32499,0.825 5.05,2.4 5.2,-5.2 -6.325,-6.34999 -6.325,-6.35 -6.32499,-6.325 -6.35,-6.35 -6.325,-6.34999 -0.975,-1.725 -0.25,-1.925 0.525,-1.9 1.225,-1.575 1.725,-0.975 1.925,-0.25 1.875,0.525 1.35,0.95 6.3,6.275 6.27499,6.27499 6.3,6.3 6.275,6.275 6.175,6.175 0,-69.64998 -11.05,0 -0.5,2.925 -0.975,5.725 -1.4,3.375 -2.225,2.925 -3.15,2.35 -7.09999,2.57499 -7.1,2.55 -7.1,2.575 -7.09999,2.575 -4.45,0.35 -3.725,-0.65 -3.225,-1.525 -4.15,-3.25 -4.125,-3.25 -0.675,-0.42499 -5.9,-1.3 -5.89999,-1.3 -3.175,-1.4 -2.875,-2.25 -2.1,-2.925 -1.275,-3.125 -1.05,-5.5 -0.2,-1.025 -22.37499,0 0,36.82499 6.45,-0.025 9.72499,-0.025 9.75,-0.025 9.725,-0.025 2.025,0.675 1.47499,1.375 0.55,1.025 0.35,1.025 0,8.94999 0,8.975 0,8.95 0,8.97499 0,8.95 0.025,8.975 0,8.94999 0,8.975 -0.55,1.925 -1.17499,1.5 -1.7,0.975 -1.625,0.3 -8.85,0 -8.85,-0.025 -8.84999,0 -8.475,0 0,23.94999 z"
     id="path3918"
     style="fill:#0f0708" />
  <path
     d="m 67.449975,283.47483 2.049999,0 9.949996,0 9.924996,0 9.924997,0 8.474997,0 0,-23.94999 -0.35,0 -8.849997,0 -8.849997,0 -8.849996,0 -8.849997,-0.025 -1.924999,-0.525 -1.525,-1.2 -0.974999,-1.675 -0.15,-0.875 0,28.24999 z"
     id="path4248"
     style="fill:#0f0708" />
  <path
     d="m 41.524984,211.52486 -2.474999,4.29999 -4.874998,8.45 -4.899998,8.475 -4.874998,8.45 -4.874998,8.44999 -1.525,2.65 49.324982,0 0,-7.425 0,-9.62499 0,-9.6 0,-9.6 0,-4.52499 -25.799991,0 z"
     id="path4217"
     style="fill:#0f0708" />
  <path
     d="m 81.499969,142.32488 -3.399998,5.875 -4.874998,8.45 -4.899999,8.44999 -4.874998,8.45 -4.874998,8.475 -4.874998,8.44999 -4.899998,8.45 -4.874998,8.45 -2.4,4.15 25.799991,0 0,-5.1 0.275,-1.425 0.574999,-1.175 0.5,-0.625 5.749998,-5.75 5.749998,-5.725 5.749998,-5.72499 5.749998,-5.725 1.699999,-0.75 1.374999,-0.35 9.749996,-0.025 3.275,0 0,-36.82499 -26.274991,0 z"
     id="path3915"
     style="fill:#0f0708" />
  <path
     d="m 81.499969,142.32488 48.649981,0 -0.875,-4.5 -2.65,-4.89999 -2.625,-4.9 -1.05,-3.3 -0.375,-3.675 0.425,-3.65 1.05,-3.3 3.575,-7.02499 3.6,-7.025 3.575,-7.049999 2.8,-3.224999 4.45,-3.624999 6.24999,-2.824999 6.25,-2.849999 6.25,-2.824999 3.875,-0.874999 3.9,-0.325 2.75,-0.325 3.42499,-0.925 6.5,-1.399999 3.35,-0.075 3.825,1.025 3.125,2.099999 2.325,2.774999 2.425,4.924998 2.425,4.899998 3.87499,4.049999 3.875,4.049998 2.175,3.000001 3.75,6.85 3.75,6.84999 1.15,3.45 0.4,3.775 -0.5,3.675 -1.2,3.35 -2.75,4.875 -2.775,4.84999 -0.35,1.3 -0.5,2.8 11.05,0 0,-0.05 35.42498,0 -0.475,-0.825 -4.92499,-8.54999 -4.925,-8.55 -4.95,-8.55 -4.925,-8.54999 -4.95,-8.550001 -4.92499,-8.549997 -4.925,-8.549997 -4.95,-8.524997 -4.925,-8.549997 -4.925,-8.549996 -4.95,-8.549997 -4.92499,-8.549997 -4.95,-8.549997 -4.925,-8.549997 -4.925,-8.549996 -4.95,-8.5499972 -1.45,-1.9999992 -1.85,-1.4499995 -2.09999,-0.89999964 -2.25,-0.324999876421 -2.225,0.224999916421 -2.125,0.77499971 -1.925,1.32499949 -1.675,2.1499992 -4.875,8.4499971 -4.875,8.449997 -4.89999,8.474996 -4.875,8.449997 -4.875,8.449997 -4.875,8.449997 -4.9,8.449997 -4.875,8.449997 -4.87499,8.449996 -4.875,8.474997 -4.9,8.449997 -4.875,8.450001 -4.874997,8.44999 -4.874998,8.45 -4.899998,8.45 -4.874998,8.47499 -1.475,2.575 z"
     id="path26"
     style="fill:#0f0708" />
  <path
     d="m 132.96657,119.32243 0.62216,-1.65554 9.49477,-18.764208 1.54549,-1.786807 0.80736,-0.764768 1.65905,2.301392 -0.4986,6.332801 0.40989,1.22256 1.03447,1.73359 5.74725,5.19719 0.0498,18.28626 0.31787,1.60946 0.98399,1.60752 1.44571,1.1458 1.96766,0.58371 2.04796,-0.25945 1.68662,-0.98214 1.16097,-1.48877 0.55436,-1.91986 -0.0679,-9.40784 8.12262,7.47521 1.91716,0.66548 1.4657,0.009 1.32374,-0.41695 1.12502,-0.61569 0.86951,-0.84281 0.67078,-1.09833 0.44365,-1.95002 -0.37967,-1.97843 -0.96405,-1.62912 -21.5212,-19.57453 0.44365,-5.214921 -0.23772,-1.353831 -2.96318,-4.533551 12.08351,-4.489374 17.25054,-2.956303 1.5791,0.904784 5.44018,10.72782 9.4716,10.557476 6.63258,12.09056 0.61383,1.75648 0.27314,1.64293 -0.29465,1.47258 -0.69212,1.64293 -5.46169,9.64899 -1.28402,4.33554 -1.33049,9.05929 -0.52532,1.60277 -0.80734,1.04827 -1.21972,0.84315 -24.78772,8.79283 -2.22347,0.20075 -1.54958,-0.37139 -1.14807,-0.69258 -6.20698,-5.14923 -3.59722,-2.13798 -12.10767,-2.75187 -1.51811,-0.56582 -0.95029,-0.82133 -0.43927,-0.84972 -0.46766,-1.30396 -1.17741,-7.66339 -1.17742,-3.94426 -5.1349,-9.57412 -0.62084,-1.68163 -0.1666,-1.59646 z"
     id="rect4031"
     style="fill:#000000;fill-opacity:1;stroke:none" />
  <path
     d="m 242.28272,231.66733 3.59592,-0.1542 3.53195,1.0433 3.09612,2.29711 2.03595,3.14763 0.87265,3.50736 -0.35714,3.59713 -0.32631,0.91194 -13.82221,-13.8427 1.37307,-0.50757"
     id="rect4098"
     style="fill:#000000;fill-opacity:1;stroke:none" />
  <path
     d="m 199.31112,231.60664 -3.59592,-0.1542 -3.53196,1.0433 -3.09611,2.29711 -2.03596,3.14763 -0.87264,3.50736 0.35714,3.59713 0.32631,0.91194 13.82221,-13.8427 -1.37307,-0.50757"
     id="rect4098-1"
     style="fill:#000000;fill-opacity:1;stroke:none" />
  <path
     d="m 18.057777,252.26219 49.255359,0.007 -0.0018,2.20533 0.280142,1.61846 0.03882,27.36847 -67.59032782,0.002 18.01784282,-31.20186"
     id="rect4313"
     style="fill:#000000;fill-opacity:1;stroke:none" />
  <path
     d="m 99.893667,189.02755 37.812113,0.10965 0.0175,60.26891 -60.281691,-0.0252 0.0517,-37.67703 17.429867,-0.0882 1.472568,-0.27389 1.673319,-0.93639 1.171448,-1.45831 0.5692,-1.77953 0.08395,-18.14003"
     id="rect4384"
     style="fill:#000000;fill-opacity:1;stroke:none" />
  <path
     d="m 89.719454,196.47662 0.0248,4.98408 -5.008454,0.006 4.983614,-4.98996 4e-5,2.8e-4"
     id="rect4497"
     style="fill:#000000;fill-opacity:1;stroke:none" />
</svg>
