<svg xmlns="http://www.w3.org/2000/svg" width="0.4657cm" height="0.42802cm" viewBox="0 0 13.20101 12.13281">
  <title>roshamglo logo</title>
  <path d="M12.74072,8.28125l-.62061-.91162L11.2085,6.749l-1.03857-.24023L9.1167,6.64746l-.72705.38916-.97021-.97021,4.73242-4.74072.09668-.145L12.291.96l-.04248-.2207L12.12061.54639,11.92773.41846,11.707.376l-.2207.04248-.189.13184L6.60059,5.24756,1.85986.51514l-.145-.09668L1.49414.376l-.2207.04248L1.08057.54639.95264.73926.91016.96l.04248.2207.13184.189L5.78174,6.06641l-.97021.97021L4.08447,6.647,3.03125,6.5083l-1.03857.24023-.91162.62109L.46,8.28125.21973,9.31982.3584,10.373l.51953.958.188.23.06445.06055.09521.0625.104.04248.11084.02148.13721-.00293.16113-.04834.08838-.04687L6.60107,6.88477l4.81006,4.78467.07666.041.10889.03223.0835.00781.11035-.00537.10791-.02637.1499-.0791.06885-.05566.23682-.29834.48877-.9126L12.981,9.31934Zm-2.604-.60791.61523.15039.54248.37207.37451.54541.15283.56152-.05322.63379-.16016.31885L9.22656,7.87354l.23145-.124Zm-6.48877.04785.31885.16016L1.604,10.24414l-.15137-.27246-.08008-.56982.16211-.66406.37256-.54248.5415-.37207.61963-.15137Z" style="fill: #0f0708"/>
</svg>
