<svg xmlns="http://www.w3.org/2000/svg" width="0.49086cm" height="0.49906cm" viewBox="0 0 13.91418 14.14655">
  <title>roshamglo logo</title>
  <path d="M13.66005,6.42243l-.16846-.46631-.42676-.76221-.66553-1.21436-1.35107-1.479-.792-1.55566L9.91884.56452,9.47646.29987,9.00136.19537,8.52675.21344,7.5453.44293l-.40137.105L6.1122.65631l-2.30371.84375-1.03271.60156-.48535.4248-.39648.47607L.369,6.02643l-.13818.46191L.18251,6.9986l.062.49756.15088.44531.72217,1.30469.3584,1.74512.189.43457.30469.38818.39209.28564.4248.17578,1.60986.33838.13965.06738,1.291.999.46143.2041.46289.07568.502-.04541.45605-.10205L11.038,12.63092l.46045-.24023.4126-.3374.2832-.40625.1665-.44922.30127-1.75.84814-1.5166.16309-.479.05762-.521Zm-2.46973,4.64844-.09814.17236-.21.1748L7.54628,12.66119l-.38574.09863-.34619.04492-.20312-.02588-.22852-.11182-1.2583-.97949-.31055-.14795-1.63428-.354-.22168-.07715-.16846-.10254-.12939-.166-.09326-.23779L2.19032,8.8277,1.47205,7.51764l-.09472-.25586-.04053-.26221.02783-.28711.08984-.28564L2.829,3.67731l.394-.44336.16016-.124.38281.52148-.07227.90576.05029.22119.0542.10254.93164.854.00537,1.584.03467.16992.126.187.186.125.22656.0459.22656-.0459.18652-.125.126-.1875.04-.22607V6.7608l.49658.44629.0791.05029.03662.01758.07471.02539.12646.02051L6.81679,7.314l.1123-.0293.15918-.08984.0791-.07129.11133-.186.03223-.22363-.0542-.21826L7.11562,6.314,4.87,4.28034l.06787-.80859-.022-.16455-.0293-.08545-.49414-.69385,1.50684-.6377,1.78711-.2876.75146-.19922.394-.05762.1875.00635.1582.09619.15918.20361.78027,1.52783,1.31543,1.42871.99268,1.79346.10693.26953.0459.25684-.03076.27148-.10352.28711-.84766,1.51953-.15723.57568-.17822,1.249Z" style="fill: #0f0708"/>
</svg>
